<svg width="72" height="72" viewBox="0 0 72 72" fill="none" xmlns="http://www.w3.org/2000/svg">
<path d="M51.4034 9.91594C45.7525 7.91344 39.7962 9.26344 35.5634 13.2909C31.3307 9.26344 25.3962 7.93594 19.7233 9.91594C13.8761 11.9859 7.63599 18.0159 7.63599 28.816C7.63599 47.671 33.4034 61.576 34.4943 62.1385L35.5634 62.701L36.6325 62.1385C37.7234 61.5535 63.4905 47.6485 63.4905 28.816C63.4905 18.0159 57.2507 11.9859 51.4034 9.91594ZM35.5634 57.2785C30.8725 54.5335 12.2833 42.7885 12.2833 28.816C12.2833 20.5584 16.9087 15.9909 21.2287 14.4609C25.9196 12.8184 30.7198 14.2809 33.7307 18.2859C34.6034 19.4334 35.4107 20.4684 36.1743 21.4134C38.9234 24.8785 40.2325 26.6335 40.2325 28.816C40.2325 31.471 38.138 33.6085 35.5853 33.6085C33.0107 33.6085 30.938 31.4485 30.938 28.816C30.938 27.5335 31.418 26.341 32.5307 24.676L29.1923 21.2334C29.1487 21.3009 29.1053 21.3459 29.0616 21.4134C27.6871 23.3485 26.2907 25.7335 26.2907 28.816C26.2907 34.1035 30.458 38.4235 35.6071 38.4235C40.7343 38.4235 44.9232 34.126 44.9232 28.816C44.9232 24.8335 42.6759 21.976 39.8178 18.376C39.4469 17.9035 39.0541 17.4309 38.6614 16.9134C41.6505 13.9659 45.8396 13.0209 49.9632 14.4609C54.2832 15.9909 58.9087 20.5584 58.9087 28.816C58.8432 42.7885 40.2543 54.5335 35.5634 57.2785Z" fill="#F7AD19"/>
</svg>
