<svg width="72" height="72" viewBox="0 0 72 72" fill="none" xmlns="http://www.w3.org/2000/svg">
<path d="M31.0275 26.2575C31.0275 29.0925 32.67 29.295 37.53 34.155C42.66 39.285 45.4275 40.59 45.4275 45.45C45.4275 49.905 42.3675 53.64 38.2275 54.72V59.85H33.435V54.72C29.3175 53.64 26.235 49.9275 26.235 45.45H31.0275C31.0275 48.105 33.1875 50.2425 35.82 50.2425C38.4525 50.2425 40.6125 48.0825 40.6125 45.45C40.6125 42.615 38.97 42.4125 34.11 37.5525C28.98 32.4225 26.2125 31.1175 26.2125 26.2575C26.2125 21.8025 29.295 18.0675 33.4125 16.9875V11.8575H38.205V16.9875C42.3225 18.0675 45.405 21.78 45.405 26.2575H40.6125C40.6125 23.6025 38.4525 21.465 35.82 21.465C33.1875 21.465 31.0275 23.6025 31.0275 26.2575ZM69.435 35.8425C69.435 54.36 54.36 69.435 35.8425 69.435C17.325 69.435 2.25 54.36 2.25 35.8425C2.25 17.325 17.325 2.25 35.8425 2.25C54.36 2.25 69.435 17.325 69.435 35.8425ZM64.6425 35.8425C64.6425 19.9575 51.7275 7.0425 35.8425 7.0425C19.9575 7.0425 7.0425 19.9575 7.0425 35.8425C7.0425 51.7275 19.9575 64.6425 35.8425 64.6425C51.7275 64.6425 64.6425 51.7275 64.6425 35.8425Z" fill="#F7AD19"/>
</svg>
