<svg width="72" height="72" viewBox="0 0 72 72" fill="none" xmlns="http://www.w3.org/2000/svg">
<path d="M40.6577 50.2268C40.1852 49.8559 39.6905 49.4631 39.1955 49.0704C41.9855 46.4741 43.965 43.8341 43.965 40.9977C43.965 38.0741 42.345 35.5213 39.9375 34.0813C41.2875 32.6413 43.1325 31.0704 44.9775 29.5868C43.6725 28.5395 42.4352 27.5141 41.3327 26.4668C39.0827 28.2777 37.035 30.0668 35.55 31.8995C33.5475 29.4559 30.578 27.0777 27.473 24.6341C27.0005 24.2631 26.5052 23.8704 26.0102 23.4777C28.8002 20.8812 30.758 18.2413 30.758 15.4049C30.758 10.9104 27.0005 7.26671 22.3654 7.26671C17.7304 7.26671 13.973 10.9104 13.973 15.4049C13.973 18.2631 15.9527 20.8813 18.7202 23.4995L18.6976 23.5213C19.1701 23.9359 19.643 24.3504 20.138 24.765C21.488 25.9213 22.9502 27.0777 24.4352 28.2777C26.7527 30.1104 29.4077 32.205 31.1627 34.1031C28.7552 35.5431 27.1352 38.0959 27.1352 41.0195C27.1352 43.8777 29.1155 46.4959 31.883 49.114L31.8605 49.1359C32.333 49.5504 32.805 49.965 33.3 50.3795C34.65 51.5359 36.1129 52.6922 37.5979 53.8922C41.4904 56.9468 46.3052 60.765 46.3052 63.1431H51.0979C51.1429 58.4741 46.0577 54.4595 40.6577 50.2268ZM18.7427 15.3612C18.7427 13.4412 20.3629 11.8704 22.3429 11.8704C24.3229 11.8704 25.9425 13.4412 25.9425 15.3612C25.9425 16.714 24.3904 18.5031 22.3429 20.3795C20.3179 18.5249 18.7427 16.714 18.7427 15.3612ZM31.9505 40.9759C31.9505 39.0559 33.57 37.485 35.55 37.485C37.53 37.485 39.1502 39.0559 39.1502 40.9759C39.1502 42.3286 37.5975 44.1177 35.55 45.9941C33.5025 44.1177 31.9505 42.3068 31.9505 40.9759ZM28.125 52.0595C29.25 53.1068 30.4877 54.1322 31.7702 55.1795C28.3052 57.9504 24.75 61.0486 24.75 63.0995H19.9578C19.9578 59.1504 23.67 55.6377 28.125 52.0595ZM14.9178 26.4668C16.0428 27.5141 17.28 28.5395 18.5625 29.5868C15.0975 32.3577 11.5428 35.4559 11.5428 37.5068H6.75C6.75 33.5577 10.4853 30.045 14.9178 26.4668ZM53.8655 24.6122C53.393 24.2413 52.8975 23.8486 52.4025 23.4559C55.1925 20.8595 57.173 18.2194 57.173 15.3831C57.173 10.8885 53.4155 7.24487 48.7805 7.24487C44.1455 7.24487 40.3879 10.8885 40.3879 15.3831C40.3879 18.2413 42.3677 20.8594 45.1352 23.4777L45.1125 23.4995C45.585 23.9141 46.0805 24.3286 46.553 24.7431C47.903 25.8995 49.3652 27.0559 50.8502 28.2559C54.7427 31.3104 59.5579 35.1286 59.5579 37.5068H64.3502C64.3502 32.8813 59.2655 28.8668 53.8655 24.6122ZM45.1577 15.3612C45.1577 13.4412 46.778 11.8704 48.758 11.8704C50.738 11.8704 52.3575 13.4412 52.3575 15.3612C52.3575 16.714 50.8055 18.5031 48.758 20.3795C46.7105 18.5249 45.1577 16.714 45.1577 15.3612Z" fill="#F7AD19"/>
</svg>
