<svg width="455" height="307" viewBox="0 0 455 307" fill="none" xmlns="http://www.w3.org/2000/svg">
<g clip-path="url(#clip0_15819_163)">
<rect width="399.669" height="255.526" rx="12" transform="matrix(0.989651 0.143493 -0.229031 0.973419 58.5234 0)" fill="#F7AD19"/>
<rect width="399.669" height="255.526" rx="12" transform="matrix(0.989651 0.143493 -0.229031 0.973419 58.5234 0)" fill="black" fill-opacity="0.2"/>
<g opacity="0.6">
<path d="M136.252 142.78C137.885 141.668 139.045 140.008 139.479 138.164C139.913 136.32 139.584 134.444 138.565 132.948" stroke="black" stroke-opacity="0.5" stroke-width="3.27598" stroke-linecap="round" stroke-linejoin="round"/>
<path d="M140.923 146.83C143.352 144.779 145.056 142.044 145.755 139.072C146.453 136.1 146.106 133.068 144.77 130.471" stroke="black" stroke-opacity="0.6" stroke-width="3.27598" stroke-linecap="round" stroke-linejoin="round"/>
<path d="M144.959 150.742C148.249 147.847 150.556 144.064 151.533 139.968C152.509 135.873 152.1 131.688 150.368 128.05" stroke="black" stroke-opacity="0.6" stroke-width="3.27598" stroke-linecap="round" stroke-linejoin="round"/>
<path d="M156.442 125.467C158.645 130.335 159.087 135.896 157.702 141.308C156.318 146.721 153.182 151.692 148.769 155.469" stroke="black" stroke-opacity="0.6" stroke-width="3.27598" stroke-linecap="round" stroke-linejoin="round"/>
</g>
<rect x="-0.249178" y="-0.365898" width="55.5278" height="40.2854" rx="8.18994" transform="matrix(0.989651 0.143493 -0.229031 0.973419 77.2159 108.308)" fill="url(#paint0_linear_15819_163)" stroke="url(#paint1_linear_15819_163)" stroke-width="0.655195"/>
<mask id="mask0_15819_163" style="mask-type:alpha" maskUnits="userSpaceOnUse" x="69" y="109" width="62" height="45">
<rect x="0.249178" y="0.365898" width="54.2174" height="38.975" rx="7.53475" transform="matrix(0.989651 0.143493 -0.229031 0.973419 77.3872 108.255)" fill="#949452" stroke="black" stroke-width="0.655195"/>
</mask>
<g mask="url(#mask0_15819_163)">
<path opacity="0.5" fill-rule="evenodd" clip-rule="evenodd" d="M105.434 113.668C105.183 112.648 103.804 112.448 103.105 113.33L95.9258 122.398C95.9258 122.398 96.6537 129.929 92.3091 137.769L94.6189 149.301C94.8353 150.381 96.2982 150.593 96.9918 149.645L104.397 139.522C104.397 139.522 103.026 134.72 108.013 124.15L105.434 113.668Z" stroke="black" stroke-width="0.851754" stroke-linejoin="bevel"/>
<path opacity="0.5" d="M74.1802 119.191L95.7845 122.323" stroke="black" stroke-width="0.851754" stroke-linejoin="bevel"/>
<path opacity="0.5" d="M107.513 124.024L129.735 127.246" stroke="black" stroke-width="0.851754" stroke-linejoin="bevel"/>
<path opacity="0.5" d="M70.5801 134.497L92.1844 137.629" stroke="black" stroke-width="0.851754" stroke-linejoin="bevel"/>
<path opacity="0.5" d="M103.912 139.329L126.133 142.551" stroke="black" stroke-width="0.851754" stroke-linejoin="bevel"/>
</g>
<path d="M82.0687 58.5291C80.4502 58.2908 78.9141 57.8715 77.4602 57.2712C76.0375 56.6497 74.8248 55.7502 73.8222 54.5726C72.8448 53.3988 72.1993 51.8747 71.8857 50.0004C71.5974 48.1298 71.7813 45.8138 72.4374 43.0523C73.0936 40.2909 73.9856 38.0792 75.1134 36.4171C76.2664 34.7588 77.5681 33.5214 79.0184 32.705C80.494 31.8924 82.0347 31.4112 83.6407 31.2615C85.2778 31.0906 86.9056 31.1243 88.524 31.3626C90.1424 31.6009 91.663 32.0308 93.0857 32.6523C94.5337 33.2775 95.7463 34.177 96.7237 35.3508C97.7263 36.5284 98.3718 38.0525 98.6602 39.9231C98.9738 41.7974 98.8055 44.1028 98.1552 46.8394C97.505 49.5759 96.6033 51.7734 95.4502 53.4317C94.3225 55.0938 93.0208 56.3311 91.5452 57.1438C90.0949 57.9601 88.5512 58.4538 86.9141 58.6247C85.3022 58.7993 83.6871 58.7674 82.0687 58.5291ZM83.5761 52.1853C85.4474 52.4609 86.9936 52.1221 88.2146 51.169C89.4357 50.2158 90.3595 48.4207 90.9861 45.7837C91.6127 43.1467 91.5756 41.2101 90.8748 39.974C90.174 38.7378 88.8879 37.982 87.0166 37.7064C85.1706 37.4346 83.6341 37.7877 82.4071 38.7657C81.1802 39.7437 80.2593 41.5263 79.6445 44.1136C79.0297 46.7009 79.0698 48.625 79.7647 49.886C80.4596 51.147 81.7301 51.9135 83.5761 52.1853ZM82.8328 28.0527L88.2088 23.4372L92.0399 24.0014L94.8951 29.8289L91.8226 29.3765L89.4162 26.782L85.8673 28.4996L82.8328 28.0527ZM96.5442 60.2745L106.593 47.8888L102.669 36.1491L103.201 33.9101L111.167 35.0831L113.36 45.6796L114.119 45.7913L120.992 36.5298L129.337 37.7586L119.274 49.8719L123.211 61.884L122.679 64.123L114.865 62.9723L112.452 52.8069L111.693 52.6952L104.586 61.4586L96.5442 60.2745ZM126.861 64.7388L126.635 62.3881L128.28 58.7682L133.14 38.3187L151.916 41.0835L153.546 42.4823L149.801 47.338L146.476 46.4621L138.548 45.2947L137.573 49.3996L147.777 50.9021L146.402 56.6862L141.926 56.0271L136.287 54.8105L135.108 59.7736L146.45 61.4437L150.112 65.6908L147.307 67.7495L126.861 64.7388ZM162.089 69.9263L166.948 49.4768L167.077 45.6334L168.367 43.5061L181.264 45.4052C184.122 45.826 186.286 46.6854 187.757 47.9835C189.229 49.2816 189.686 51.0999 189.131 53.4384C188.853 54.6076 188.399 55.6352 187.77 56.5209C187.141 57.4067 186.385 58.055 185.502 58.4657C187.092 59.2662 188.158 60.2858 188.701 61.5245C189.244 62.7631 189.333 64.1537 188.966 65.6961C188.322 68.4078 187.037 70.2913 185.111 71.3466C183.216 72.3808 180.726 72.6707 177.641 72.2164L162.089 69.9263ZM172.756 54.7736L178.75 55.6561C179.609 55.7827 180.276 55.6749 180.75 55.3327C181.224 54.9906 181.538 54.4961 181.692 53.8492C181.887 53.0283 181.742 52.4276 181.256 52.0471C180.771 51.6666 180.149 51.4206 179.39 51.3088L173.776 50.4822L172.756 54.7736ZM170.336 64.961L177.922 66.0782C178.832 66.2122 179.529 66.1989 180.012 66.0383C180.521 65.8815 180.879 65.6382 181.089 65.3085C181.323 64.9826 181.485 64.633 181.573 64.2599C181.727 63.613 181.617 63.0304 181.243 62.5118C180.9 61.9721 180.286 61.6371 179.401 61.5068L171.435 60.3338L170.336 64.961ZM188.587 73.8282L191.906 67.7898L193.032 63.0505L196.105 62.3444L204.415 48.8529L214.239 50.2995L216.373 67.9167L218.035 73.6457L216.998 78.0118L210.284 77.0231L209.806 70.7732L198.768 69.1478L195.718 74.8783L188.587 73.8282ZM202.637 63.7697L209.085 64.7192L208.233 55.7492L207.436 55.6319L202.637 63.7697ZM220.395 78.512L225.245 58.0998L225.373 54.2564L226.664 52.1291L232.771 53.0284L238.021 64.3069L239.106 67.6722L239.485 67.7281L242.633 54.4807L249.802 55.5364L249.27 57.7754L248.004 61.4512L243.154 81.8634L237.198 80.9865L230.799 66.449L230.419 66.3931L229.887 68.6321L227.678 79.5845L220.395 78.512ZM248.843 82.7012L253.667 62.401L253.804 58.5203L255.121 56.281L261.949 57.2865L260.885 61.7645L258.919 68.3883L261.195 68.7234L269.953 58.465L277.501 59.5766L276.969 61.8156L266.967 71.1956L271.495 79.8958L274.373 84.1432L273.841 86.3822L265.306 85.1254L260.752 74.2199L257.932 74.1909L256.735 79.2287L256.583 81.5235L255.671 83.7067L248.843 82.7012Z" fill="white"/>
<path d="M363.869 258.936C362.21 258.039 360.373 257.444 358.446 257.177C352.222 256.275 347.116 258.656 346.065 262.985C345.277 266.163 348.018 268.416 350.16 269.826C352.357 271.276 353.015 272.084 352.778 273.061C352.412 274.545 350.309 274.938 348.5 274.675C346.014 274.315 344.735 273.785 342.843 272.647L342.151 272.186L340.094 277.047C341.464 277.873 344.068 278.789 346.874 279.242C353.491 280.202 358.522 277.829 359.658 273.225C360.311 270.69 359.051 268.521 355.823 266.41C353.875 265.063 352.68 264.177 352.925 263.132C353.143 262.207 354.539 261.386 356.97 261.739C358.597 261.936 360.136 262.461 361.487 263.281L362.011 263.616L364.028 258.924L363.869 258.936ZM380.146 260.742L375.283 260.037C373.77 259.817 372.536 260.053 371.535 261.403L357.384 280.445L364.001 281.404L366.11 278.251L374.184 279.43C374.19 280.24 374.173 282.879 374.173 282.879L380.008 283.725L380.146 260.742ZM338.793 254.552L345.099 255.467L335.918 277.15L329.62 276.237L338.795 254.545L338.793 254.552ZM319.9 264.498L319.827 267.683L329.557 253.407L336.236 254.375L321.087 275.151L314.423 274.185L313.403 254.585C313.388 254.262 313.243 253.966 312.999 253.756C311.266 252.495 309.36 251.453 307.325 250.652L307.521 250.196L317.669 251.668C319.034 251.92 320.045 252.496 320.081 253.966L319.894 264.509L319.896 264.497L319.9 264.498ZM368.99 273.963L372.967 268.102C372.92 268.165 373.787 266.892 374.302 266.103L374.282 268.087L374.23 274.719L368.987 273.958L368.986 273.962L368.99 273.963Z" fill="white"/>
<path d="M36.1081 226C35.9528 225.429 35.6574 224.975 35.2219 224.637C34.7887 224.289 34.2453 224.068 33.5917 223.973C32.8759 223.87 32.2006 223.935 31.566 224.17C30.9313 224.406 30.3847 224.791 29.9263 225.326C29.4782 225.862 29.1641 226.513 28.984 227.278C28.8039 228.044 28.7999 228.745 28.9719 229.382C29.1566 230.01 29.4919 230.523 29.9777 230.921C30.4635 231.318 31.0644 231.569 31.7802 231.673C32.745 231.813 33.5908 231.661 34.3173 231.218C35.0439 230.774 35.5815 230.108 35.93 229.219L31.8684 228.631L32.1961 227.238L38.1563 228.102L37.8358 229.464C37.5272 230.274 37.0475 230.991 36.3966 231.614C35.7561 232.239 34.9976 232.704 34.121 233.009C33.2573 233.306 32.3533 233.386 31.4093 233.249C30.3925 233.102 29.518 232.738 28.7857 232.157C28.0558 231.565 27.5391 230.82 27.2356 229.922C26.9425 229.024 26.9184 228.055 27.1633 227.014C27.4082 225.974 27.8717 225.075 28.5537 224.319C29.2462 223.565 30.0666 223.019 31.015 222.682C31.9762 222.336 32.9599 222.236 33.9663 222.382C35.1179 222.549 36.0737 222.977 36.8339 223.668C37.6068 224.35 38.0756 225.23 38.2401 226.309L36.1081 226ZM49.6738 224.802L47.1708 235.44L45.3968 235.182L46.4916 230.529L41.4028 229.791L40.308 234.445L38.5339 234.187L41.0369 223.549L42.811 223.806L41.7378 228.368L46.8265 229.106L47.8998 224.544L49.6738 224.802ZM53.4521 226.806L52.7174 229.928L56.4522 230.47L56.1173 231.893L52.3824 231.352L51.6153 234.612L55.8171 235.221L55.4821 236.645L49.5063 235.778L52.0129 225.125L57.9887 225.991L57.6538 227.415L53.4521 226.806ZM63.7028 226.836C64.8544 227.003 65.8091 227.368 66.567 227.932C67.3376 228.487 67.8603 229.206 68.1351 230.09C68.4226 230.965 68.4392 231.944 68.1847 233.026C67.9302 234.107 67.4707 235.011 66.8061 235.738C66.152 236.466 65.3388 236.982 64.3665 237.284C63.407 237.577 62.3514 237.641 61.1998 237.474L57.6672 236.962L60.1702 226.323L63.7028 226.836ZM61.5347 236.05C62.8004 236.234 63.8497 236.038 64.6825 235.462C65.5153 234.886 66.0758 233.986 66.3639 232.762C66.6544 231.527 66.5441 230.514 66.0331 229.722C65.522 228.93 64.6336 228.443 63.3679 228.259L61.6094 228.004L59.7762 235.795L61.5347 236.05ZM79.2178 229.085L74.0431 235.347L73.1356 239.204L71.3615 238.947L72.2691 235.09L70.2697 227.788L72.2461 228.074L73.5235 233.657L77.257 228.801L79.2178 229.085ZM89.9473 230.641L83.3827 240.69L81.3285 240.392L79.7542 229.163L81.6528 229.438L82.7769 238.75L88.0799 230.37L89.9473 230.641ZM95.9598 240.266L91.4313 239.609L90.1418 241.67L88.2899 241.402L94.6714 231.31L96.7256 231.608L98.0939 242.823L96.2265 242.552L95.9598 240.266ZM95.7968 238.77L95.2015 233.571L92.2642 238.258L95.7968 238.77ZM108.665 244.356L106.891 244.099L103.422 235.381L101.553 243.325L99.7788 243.067L102.285 232.414L104.059 232.671L107.532 241.374L109.397 233.445L111.171 233.702L108.665 244.356ZM126.861 235.993L120.297 246.042L118.243 245.745L116.668 234.515L118.567 234.791L119.691 244.103L124.994 235.722L126.861 235.993ZM130.119 236.466L127.616 247.104L125.842 246.846L128.345 236.208L130.119 236.466ZM138.831 248.73L137.057 248.473L133.588 239.754L131.719 247.699L129.945 247.441L132.452 236.788L134.226 237.045L137.698 245.748L139.564 237.819L141.338 238.076L138.831 248.73ZM145.438 238.687L142.935 249.325L141.161 249.068L143.664 238.429L145.438 238.687ZM146.69 236.51L142.859 237.68L143.161 236.394L147.04 235.025L146.69 236.51ZM145.93 244.235C146.175 243.194 146.638 242.296 147.32 241.54C148.013 240.785 148.833 240.239 149.781 239.902C150.743 239.556 151.726 239.456 152.733 239.602C153.884 239.769 154.84 240.198 155.6 240.888C156.373 241.57 156.842 242.451 157.006 243.53L154.874 243.221C154.726 242.619 154.436 242.144 154.003 241.796C153.569 241.449 153.026 241.227 152.372 241.133C151.657 241.029 150.981 241.094 150.347 241.33C149.712 241.565 149.164 241.955 148.703 242.5C148.253 243.047 147.935 243.713 147.75 244.499C147.565 245.284 147.559 245.996 147.731 246.633C147.913 247.271 148.246 247.794 148.73 248.202C149.215 248.6 149.816 248.85 150.532 248.954C151.186 249.049 151.794 248.995 152.357 248.791C152.92 248.588 153.407 248.226 153.819 247.706L155.951 248.015C155.307 248.976 154.468 249.667 153.436 250.088C152.414 250.509 151.327 250.637 150.176 250.47C149.159 250.322 148.284 249.958 147.552 249.377C146.822 248.786 146.305 248.041 146.002 247.142C145.709 246.245 145.685 245.276 145.93 244.235ZM161.577 241.027L159.074 251.665L157.3 251.408L159.803 240.77L161.577 241.027ZM165.665 241.619L164.07 248.4C163.88 249.206 163.95 249.844 164.279 250.314C164.619 250.786 165.172 251.077 165.94 251.188C166.718 251.301 167.368 251.184 167.889 250.838C168.421 250.493 168.782 249.917 168.972 249.111L170.567 242.33L172.341 242.587L170.753 249.338C170.549 250.205 170.184 250.912 169.658 251.458C169.133 252.005 168.514 252.379 167.801 252.582C167.088 252.785 166.343 252.83 165.564 252.717C164.786 252.604 164.111 252.353 163.537 251.964C162.974 251.576 162.576 251.054 162.344 250.398C162.113 249.742 162.099 248.98 162.303 248.112L163.891 241.362L165.665 241.619ZM175.686 254.184C174.96 254.079 174.335 253.862 173.812 253.533C173.291 253.193 172.919 252.77 172.695 252.263C172.471 251.755 172.431 251.196 172.575 250.583L174.473 250.859C174.407 251.324 174.5 251.728 174.752 252.07C175.014 252.414 175.441 252.629 176.032 252.715C176.644 252.804 177.155 252.73 177.565 252.494C177.977 252.248 178.237 251.895 178.345 251.436C178.429 251.079 178.388 250.772 178.223 250.516C178.069 250.261 177.845 250.049 177.552 249.88C177.27 249.713 176.865 249.517 176.338 249.293C175.676 249.007 175.144 248.74 174.741 248.491C174.351 248.234 174.047 247.884 173.829 247.441C173.612 246.998 173.581 246.445 173.737 245.781C173.881 245.169 174.163 244.656 174.582 244.242C175.001 243.828 175.52 243.539 176.138 243.375C176.755 243.212 177.433 243.183 178.169 243.29C179.217 243.442 180.012 243.826 180.553 244.443C181.108 245.051 181.315 245.809 181.177 246.718L179.216 246.433C179.276 246.041 179.167 245.682 178.89 245.357C178.612 245.032 178.193 244.829 177.633 244.748C177.125 244.674 176.68 244.741 176.298 244.95C175.917 245.158 175.669 245.502 175.556 245.982C175.48 246.309 175.515 246.593 175.661 246.836C175.821 247.07 176.042 247.271 176.324 247.439C176.607 247.606 177.001 247.801 177.507 248.022C178.177 248.319 178.712 248.598 179.113 248.856C179.524 249.116 179.837 249.473 180.052 249.926C180.28 250.371 180.314 250.93 180.156 251.603C180.029 252.144 179.758 252.633 179.345 253.069C178.941 253.506 178.419 253.831 177.779 254.045C177.152 254.249 176.454 254.296 175.686 254.184Z" fill="white"/>
</g>
<defs>
<linearGradient id="paint0_linear_15819_163" x1="27.4363" y1="-7.79927e-07" x2="46.3369" y2="54.6897" gradientUnits="userSpaceOnUse">
<stop stop-color="#DCD59E"/>
<stop offset="1" stop-color="#CBBB82"/>
</linearGradient>
<linearGradient id="paint1_linear_15819_163" x1="3.65817" y1="2.25588" x2="27.4363" y2="39.6302" gradientUnits="userSpaceOnUse">
<stop stop-color="#FBF3C0"/>
<stop offset="1" stop-color="#CCBC84"/>
</linearGradient>
<clipPath id="clip0_15819_163">
<rect width="399.669" height="255.526" rx="12" transform="matrix(0.989651 0.143493 -0.229031 0.973419 58.5234 0)" fill="white"/>
</clipPath>
</defs>
</svg>
