<svg width="379" height="66" viewBox="0 0 379 66" fill="none" xmlns="http://www.w3.org/2000/svg">
<path d="M24.53 65.7C21.5433 65.7 18.6267 65.35 15.78 64.65C12.98 63.9033 10.4367 62.5967 8.15 60.73C5.91 58.8633 4.11333 56.2733 2.76 52.96C1.45333 49.6467 0.8 45.4 0.8 40.22C0.8 35.04 1.45333 30.7933 2.76 27.48C4.11333 24.1667 5.91 21.5767 8.15 19.71C10.4367 17.8433 12.98 16.56 15.78 15.86C18.6267 15.1133 21.5433 14.74 24.53 14.74C27.5167 14.74 30.41 15.1133 33.21 15.86C36.0567 16.6067 38.6 17.9133 40.84 19.78C43.1267 21.6467 44.9233 24.2367 46.23 27.55C47.5833 30.8633 48.26 35.0867 48.26 40.22C48.26 45.3533 47.5833 49.5767 46.23 52.89C44.9233 56.2033 43.1267 58.7933 40.84 60.66C38.6 62.5267 36.0567 63.8333 33.21 64.58C30.41 65.3267 27.5167 65.7 24.53 65.7ZM24.53 53.8C27.9833 53.8 30.5967 52.7733 32.37 50.72C34.1433 48.6667 35.03 45.1667 35.03 40.22C35.03 35.2733 34.1433 31.7733 32.37 29.72C30.5967 27.6667 27.9833 26.64 24.53 26.64C21.1233 26.64 18.5333 27.69 16.76 29.79C14.9867 31.89 14.1 35.3667 14.1 40.22C14.1 45.0733 14.9867 48.55 16.76 50.65C18.5333 52.75 21.1233 53.8 24.53 53.8ZM12.98 10.26L20.61 0.459996H27.68L35.24 10.26H29.57L24.18 6.2L18.58 10.26H12.98ZM51.0797 65L63.7497 39.87L51.7797 19.64V15.44H66.4797L74.8797 34.06H76.2797L84.6097 15.44H100.01L87.1997 40.08L99.3097 60.8V65H84.8897L76.2797 47.22H74.8797L65.9197 65H51.0797ZM107.028 65L105.628 60.8L107.028 53.8V15.44H141.678L145.178 17.54L140.558 27.34L134.258 26.64H119.628V34.34H138.458V45.19H130.198L119.628 44.49V53.8H140.558L148.888 60.52L144.758 65H107.028ZM172.038 65V26.64L170.638 19.64L172.038 15.44H195.838C201.111 15.44 205.334 16.42 208.508 18.38C211.681 20.34 213.268 23.5133 213.268 27.9C213.268 30.0933 212.894 32.0767 212.148 33.85C211.401 35.6233 210.328 37 208.928 37.98C212.101 39.0067 214.434 40.57 215.928 42.67C217.421 44.77 218.168 47.2667 218.168 50.16C218.168 55.2467 216.674 59.0033 213.688 61.43C210.748 63.81 206.431 65 200.738 65H172.038ZM184.638 34.69H195.698C197.284 34.69 198.428 34.3167 199.128 33.57C199.828 32.8233 200.178 31.8433 200.178 30.63C200.178 29.09 199.664 28.04 198.638 27.48C197.611 26.92 196.398 26.64 194.998 26.64H184.638V34.69ZM184.638 53.8H198.638C200.318 53.8 201.554 53.59 202.348 53.17C203.188 52.75 203.724 52.2133 203.958 51.56C204.238 50.9067 204.378 50.23 204.378 49.53C204.378 48.3167 203.934 47.29 203.048 46.45C202.207 45.5633 200.971 45.12 199.338 45.12H184.638V53.8ZM220.936 65L224.296 53.17V44.28L229.476 42.18L238.576 15.51H256.706L267.976 46.87L273.366 56.81V65H260.976L257.476 53.8H237.106L234.096 65H220.936ZM241.726 43.02H253.626L248.306 26.99H246.836L241.726 43.02ZM279.635 65V26.71L278.235 19.71L279.635 15.51H290.905L305.045 34.55L308.405 40.36H309.105V15.51H322.335V19.71L321.635 26.71V65H310.645L293.075 40.36H292.375V44.56L293.075 65H279.635ZM332.135 65V26.92L330.735 19.85L332.135 15.44H344.735V23.84L344.035 36.37H348.235L359.505 15.44H373.435V19.64L359.575 39.31L371.335 53.87L378.265 60.8V65H362.515L349.775 46.45L344.735 47.15V56.6L345.435 60.8L344.735 65H332.135Z" fill="white"/>
</svg>
